<svg width="663" height="605" viewBox="0 0 663 605" fill="none" xmlns="http://www.w3.org/2000/svg">
<path fill-rule="evenodd" clip-rule="evenodd" d="M299.071 1.01848C368.961 13.4683 361.693 131.652 421.396 170.061C481.048 208.437 576.53 160.154 625.778 211.201C673.565 260.734 665.72 343.604 654.303 411.478C643.045 478.413 621.637 555.521 562.316 588.506C502.546 621.742 430.197 572.746 361.822 574.113C316.463 575.02 275.507 594.492 230.144 595.146C167.656 596.047 90.1357 624.06 47.201 578.649C4.78203 533.784 50.3711 458.522 43.008 397.219C35.8922 337.975 -15.831 282.008 4.84852 226.036C25.5215 170.082 97.7348 157.084 145.117 120.847C197.84 80.5246 233.725 -10.6217 299.071 1.01848Z" fill="url(#paint0_linear_9_2)"/>
<defs>
<linearGradient id="paint0_linear_9_2" x1="331.479" y1="0" x2="331.479" y2="604.513" gradientUnits="userSpaceOnUse">
<stop stop-opacity="0.05"/>
<stop offset="1" stop-opacity="0"/>
</linearGradient>
</defs>
</svg>
